<?xml version="1.0" encoding="UTF-8" standalone="no"?>
<svg
   xmlns:dc="http://purl.org/dc/elements/1.1/"
   xmlns:cc="http://creativecommons.org/ns#"
   xmlns:rdf="http://www.w3.org/1999/02/22-rdf-syntax-ns#"
   xmlns:svg="http://www.w3.org/2000/svg"
   xmlns="http://www.w3.org/2000/svg"
   xmlns:sodipodi="http://sodipodi.sourceforge.net/DTD/sodipodi-0.dtd"
   xmlns:inkscape="http://www.inkscape.org/namespaces/inkscape"
   width="436.87332"
   zoomAndPan="magnify"
   viewBox="0 0 327.65499 136.5"
   height="182"
   preserveAspectRatio="xMidYMid meet"
   version="1.0"
   id="svg209"
   sodipodi:docname="fruitful-life-counseling.svg"
   inkscape:version="1.0.2 (e86c870879, 2021-01-15)">
  <metadata
     id="metadata213">
    <rdf:RDF>
      <cc:Work
         rdf:about="">
        <dc:format>image/svg+xml</dc:format>
        <dc:type
           rdf:resource="http://purl.org/dc/dcmitype/StillImage" />
        <dc:title></dc:title>
      </cc:Work>
    </rdf:RDF>
  </metadata>
  <sodipodi:namedview
     pagecolor="#ffffff"
     bordercolor="#666666"
     borderopacity="1"
     objecttolerance="10"
     gridtolerance="10"
     guidetolerance="10"
     inkscape:pageopacity="0"
     inkscape:pageshadow="2"
     inkscape:window-width="1442"
     inkscape:window-height="784"
     id="namedview211"
     showgrid="false"
     fit-margin-top="0"
     fit-margin-left="0"
     fit-margin-right="0"
     fit-margin-bottom="0"
     inkscape:zoom="1.138"
     inkscape:cx="208.07199"
     inkscape:cy="133.9375"
     inkscape:window-x="19"
     inkscape:window-y="13"
     inkscape:window-maximized="0"
     inkscape:current-layer="svg209" />
  <defs
     id="defs13">
    <g
       id="g2" />
    <clipPath
       id="a8a5d328f6">
      <path
         d="M 26.074219,99 H 107 V 223.54687 H 26.074219 Z m 0,0"
         clip-rule="nonzero"
         id="path4" />
    </clipPath>
    <clipPath
       id="85c232a6ac">
      <path
         d="m 42,87.046875 h 75.57422 V 204 H 42 Z m 0,0"
         clip-rule="nonzero"
         id="path7" />
    </clipPath>
    <clipPath
       id="f37ac7fd11">
      <rect
         x="0"
         width="279"
         y="0"
         height="33"
         id="rect10" />
    </clipPath>
  </defs>
  <g
     clip-path="url(#a8a5d328f6)"
     id="g17"
     transform="translate(-26.173603,-87.046875)">
    <path
       fill="#eec731"
       d="m 68.230469,99.589844 c -1.246094,-0.04687 -2.285157,0.605466 -2.808594,1.867186 -0.484375,1.17578 0.01563,2.21094 1.738281,3.57422 2.75,2.18359 5.042969,5.65234 5.910156,8.95313 0.589844,2.25 0.847657,6.09375 0.433594,6.50781 -0.160156,0.16015 -0.910156,0.29297 -1.664062,0.29297 -1.992188,0.004 -8.953125,1.47265 -11.605469,2.44922 -6.34375,2.33593 -11.859375,5.87109 -16.875,10.83203 -3.925781,3.8789 -6.0625,6.47656 -8.339844,10.15234 -4.515625,7.28906 -7.410156,15.17187 -8.433593,22.96875 -0.78125,5.94141 -0.421876,14.30469 0.820312,19.23437 2.507812,9.92188 7.753906,18.3125 14.632812,23.39063 2.421876,1.78906 3.363282,2.85937 4.234376,4.82812 1.574218,3.54688 2.058593,4.35938 3.410156,5.70704 1.386718,1.38671 2.554687,2.1289 4.546875,2.89062 0.636719,0.24609 1.855469,0.34766 3.558593,0.29688 2.867188,-0.082 4.609376,-0.69141 7.046876,-2.46485 1.988281,-1.44531 3.234374,-1.96094 6.308593,-2.62109 11.390625,-2.44141 21.585938,-8.92578 29.347659,-18.67188 0.71094,-0.89453 1.39062,-1.80468 2.03906,-2.72656 h -7.613281 c -1.054688,1.23828 -2.175781,2.4375 -3.371094,3.59766 -6.4375,6.26172 -12.351563,9.62109 -20.324219,11.53515 -5.625,1.35157 -6.265625,1.59375 -8.890625,3.38282 -1.375,0.93359 -2.914062,1.84375 -3.425781,2.01953 -2.855469,0.98437 -5.019531,-0.32422 -6.597656,-3.9961 -1.6875,-3.92578 -3.039063,-5.6289 -6.667969,-8.41015 -6.195313,-4.7461 -10.632813,-12.39844 -12.664063,-21.82422 -0.527343,-2.45703 -0.613281,-3.67969 -0.621093,-8.70703 -0.0078,-6.33985 0.398437,-9.41797 1.910156,-14.41797 5.09375,-16.875 18.15625,-29.77344 33.0625,-32.65625 5.421875,-1.04688 9.5,-0.96094 14.507813,0.30078 7.273437,1.83594 13.773437,7.01953 18.203122,14.13672 h 6.88282 C 102.55859,133.57031 95.722656,126.86328 87.828125,123.50781 86.125,122.78516 82.503906,121.67188 80.339844,121.20703 79.609375,121.04688 79.59375,121 79.585938,119.07813 c -0.0039,-2.08594 -0.589844,-6.17188 -1.117188,-7.79688 -1.316406,-4.06641 -5.597656,-9.73828 -8.4375,-11.1875 -0.625,-0.316406 -1.234375,-0.484375 -1.800781,-0.503906 z m 0,0"
       fill-opacity="1"
       fill-rule="nonzero"
       id="path15" />
  </g>
  <g
     clip-path="url(#85c232a6ac)"
     id="g21"
     transform="translate(-26.173603,-87.046875)">
    <path
       fill="#b4c54e"
       d="m 42.910156,202.875 -0.519531,-0.61328 0.613281,0.51953 c 0.574219,0.48437 0.738282,0.70703 0.519532,0.70703 -0.05078,0 -0.328126,-0.27734 -0.613282,-0.61328 z m 30.707032,-84.15625 c 0.01562,-0.31641 0.07812,-0.38281 0.164062,-0.16406 0.07813,0.19531 0.07031,0.42969 -0.01953,0.52344 -0.08984,0.0898 -0.15625,-0.0703 -0.144532,-0.35938 z m 7.242187,-1.46484 c -1.101563,-0.21485 -1.664063,-0.7461 -1.285156,-1.22266 0.121093,-0.15625 0.304687,-0.89453 0.40625,-1.64062 0.648437,-4.73047 2.394531,-9.72266 4.691406,-13.41407 1.730469,-2.777341 5.675781,-6.816404 8.480469,-8.675779 5.128906,-3.410156 12.300786,-5.253906 20.417966,-5.253906 h 3.90625 l -0.004,1.15625 c -0.004,0.636719 -0.23828,2.257813 -0.52735,3.605469 -3.01562,14.171876 -12.5625,23.394536 -26.167966,25.277346 -3.210938,0.44531 -8.058594,0.52344 -9.917969,0.16797 z m 0,0"
       fill-opacity="1"
       fill-rule="nonzero"
       id="path19" />
  </g>
  <g
     fill="#171716"
     fill-opacity="1"
     id="g29"
     transform="translate(-26.173603,-87.046875)">
    <g
       transform="translate(93.185835,170.50867)"
       id="g27">
      <g
         id="g25">
        <path
           d="m 17.3125,-23.40625 v 4.5625 H 7.765625 v 4.9375 h 7.140625 v 4.4375 H 7.765625 V 0 H 2.0625 v -23.40625 z m 0,0"
           id="path23" />
      </g>
    </g>
  </g>
  <g
     fill="#171716"
     fill-opacity="1"
     id="g37"
     transform="translate(-26.173603,-87.046875)">
    <g
       transform="translate(114.89103,170.50867)"
       id="g35">
      <g
         id="g33">
        <path
           d="M 14,0 9.140625,-8.84375 h -1.375 V 0 H 2.0625 v -23.40625 h 9.578125 c 1.84375,0 3.414063,0.324219 4.71875,0.96875 1.300781,0.648438 2.269531,1.53125 2.90625,2.65625 0.644531,1.117188 0.96875,2.367188 0.96875,3.75 0,1.554688 -0.4375,2.945312 -1.3125,4.171875 -0.875,1.21875 -2.171875,2.085937 -3.890625,2.59375 L 20.4375,0 Z M 7.765625,-12.875 h 3.53125 c 1.050781,0 1.835937,-0.253906 2.359375,-0.765625 0.519531,-0.507813 0.78125,-1.234375 0.78125,-2.171875 0,-0.882812 -0.261719,-1.582031 -0.78125,-2.09375 -0.523438,-0.507812 -1.308594,-0.765625 -2.359375,-0.765625 h -3.53125 z m 0,0"
           id="path31" />
      </g>
    </g>
  </g>
  <g
     fill="#171716"
     fill-opacity="1"
     id="g45"
     transform="translate(-26.173603,-87.046875)">
    <g
       transform="translate(140.0969,170.50867)"
       id="g43">
      <g
         id="g41">
        <path
           d="m 7.671875,-23.40625 v 14 c 0,1.40625 0.34375,2.492188 1.03125,3.25 0.6875,0.75 1.695313,1.125 3.03125,1.125 1.332031,0 2.351563,-0.375 3.0625,-1.125 C 15.515625,-6.914062 15.875,-8 15.875,-9.40625 v -14 h 5.703125 V -9.4375 c 0,2.09375 -0.449219,3.867188 -1.34375,5.3125 -0.886719,1.4375 -2.078125,2.527344 -3.578125,3.265625 -1.5,0.730469 -3.171875,1.09375 -5.015625,1.09375 C 9.796875,0.234375 8.144531,-0.125 6.6875,-0.84375 5.226562,-1.570312 4.078125,-2.660156 3.234375,-4.109375 2.390625,-5.566406 1.96875,-7.34375 1.96875,-9.4375 v -13.96875 z m 0,0"
           id="path39" />
      </g>
    </g>
  </g>
  <g
     fill="#171716"
     fill-opacity="1"
     id="g53"
     transform="translate(-26.173603,-87.046875)">
    <g
       transform="translate(167.06979,170.50867)"
       id="g51">
      <g
         id="g49">
        <path
           d="M 7.765625,-23.40625 V 0 H 2.0625 v -23.40625 z m 0,0"
           id="path47" />
      </g>
    </g>
  </g>
  <g
     fill="#171716"
     fill-opacity="1"
     id="g61"
     transform="translate(-26.173603,-87.046875)">
    <g
       transform="translate(180.37334,170.50867)"
       id="g59">
      <g
         id="g57">
        <path
           d="m 18.90625,-23.40625 v 4.5625 H 12.703125 V 0 H 7 V -18.84375 H 0.796875 v -4.5625 z m 0,0"
           id="path55" />
      </g>
    </g>
  </g>
  <g
     fill="#171716"
     fill-opacity="1"
     id="g69"
     transform="translate(-26.173603,-87.046875)">
    <g
       transform="translate(203.54549,170.50867)"
       id="g67">
      <g
         id="g65">
        <path
           d="m 17.3125,-23.40625 v 4.5625 H 7.765625 v 4.9375 h 7.140625 v 4.4375 H 7.765625 V 0 H 2.0625 v -23.40625 z m 0,0"
           id="path63" />
      </g>
    </g>
  </g>
  <g
     fill="#171716"
     fill-opacity="1"
     id="g77"
     transform="translate(-26.173603,-87.046875)">
    <g
       transform="translate(225.25068,170.50867)"
       id="g75">
      <g
         id="g73">
        <path
           d="m 7.671875,-23.40625 v 14 c 0,1.40625 0.34375,2.492188 1.03125,3.25 0.6875,0.75 1.695313,1.125 3.03125,1.125 1.332031,0 2.351563,-0.375 3.0625,-1.125 C 15.515625,-6.914062 15.875,-8 15.875,-9.40625 v -14 h 5.703125 V -9.4375 c 0,2.09375 -0.449219,3.867188 -1.34375,5.3125 -0.886719,1.4375 -2.078125,2.527344 -3.578125,3.265625 -1.5,0.730469 -3.171875,1.09375 -5.015625,1.09375 C 9.796875,0.234375 8.144531,-0.125 6.6875,-0.84375 5.226562,-1.570312 4.078125,-2.660156 3.234375,-4.109375 2.390625,-5.566406 1.96875,-7.34375 1.96875,-9.4375 v -13.96875 z m 0,0"
           id="path71" />
      </g>
    </g>
  </g>
  <g
     fill="#171716"
     fill-opacity="1"
     id="g85"
     transform="translate(-26.173603,-87.046875)">
    <g
       transform="translate(252.22357,170.50867)"
       id="g83">
      <g
         id="g81">
        <path
           d="m 7.765625,-4.40625 h 7.46875 V 0 H 2.0625 v -23.40625 h 5.703125 z m 0,0"
           id="path79" />
      </g>
    </g>
  </g>
  <g
     fill="#171716"
     fill-opacity="1"
     id="g91"
     transform="translate(-26.173603,-87.046875)">
    <g
       transform="translate(271.59497,170.50867)"
       id="g89">
      <g
         id="g87" />
    </g>
  </g>
  <g
     fill="#171716"
     fill-opacity="1"
     id="g99"
     transform="translate(-26.173603,-87.046875)">
    <g
       transform="translate(282.13131,170.50867)"
       id="g97">
      <g
         id="g95">
        <path
           d="m 7.765625,-4.40625 h 7.46875 V 0 H 2.0625 v -23.40625 h 5.703125 z m 0,0"
           id="path93" />
      </g>
    </g>
  </g>
  <g
     fill="#171716"
     fill-opacity="1"
     id="g107"
     transform="translate(-26.173603,-87.046875)">
    <g
       transform="translate(301.50272,170.50867)"
       id="g105">
      <g
         id="g103">
        <path
           d="M 7.765625,-23.40625 V 0 H 2.0625 v -23.40625 z m 0,0"
           id="path101" />
      </g>
    </g>
  </g>
  <g
     fill="#171716"
     fill-opacity="1"
     id="g115"
     transform="translate(-26.173603,-87.046875)">
    <g
       transform="translate(314.80627,170.50867)"
       id="g113">
      <g
         id="g111">
        <path
           d="m 17.3125,-23.40625 v 4.5625 H 7.765625 v 4.9375 h 7.140625 v 4.4375 H 7.765625 V 0 H 2.0625 v -23.40625 z m 0,0"
           id="path109" />
      </g>
    </g>
  </g>
  <g
     fill="#171716"
     fill-opacity="1"
     id="g123"
     transform="translate(-26.173603,-87.046875)">
    <g
       transform="translate(336.51147,170.50867)"
       id="g121">
      <g
         id="g119">
        <path
           d="m 7.765625,-18.84375 v 4.734375 h 7.640625 v 4.40625 H 7.765625 V -4.5625 H 16.40625 V 0 H 2.0625 v -23.40625 h 14.34375 v 4.5625 z m 0,0"
           id="path117" />
      </g>
    </g>
  </g>
  <g
     transform="translate(63.826397,80.953125)"
     id="g207">
    <g
       clip-path="url(#f37ac7fd11)"
       id="g205">
      <g
         fill="#231f20"
         fill-opacity="1"
         id="g131">
        <g
           transform="translate(1.105361,24.231518)"
           id="g129">
          <g
             id="g127">
            <path
               d="m 0.75,-7.9375 c 0,-1.5625 0.335938,-2.957031 1.015625,-4.1875 0.675781,-1.226562 1.617187,-2.179688 2.828125,-2.859375 1.207031,-0.6875 2.578125,-1.03125 4.109375,-1.03125 1.882813,0 3.492187,0.496094 4.828125,1.484375 1.34375,0.992188 2.238281,2.34375 2.6875,4.0625 H 11.984375 C 11.660156,-11.132812 11.207031,-11.640625 10.625,-11.984375 10.050781,-12.328125 9.394531,-12.5 8.65625,-12.5 c -1.1875,0 -2.152344,0.417969 -2.890625,1.25 -0.730469,0.824219 -1.09375,1.929688 -1.09375,3.3125 0,1.386719 0.363281,2.492188 1.09375,3.3125 0.738281,0.824219 1.703125,1.234375 2.890625,1.234375 0.738281,0 1.394531,-0.171875 1.96875,-0.515625 0.582031,-0.34375 1.035156,-0.847656 1.359375,-1.515625 h 4.234375 c -0.449219,1.71875 -1.34375,3.074219 -2.6875,4.0625 -1.335938,0.980469 -2.945312,1.46875 -4.828125,1.46875 -1.53125,0 -2.902344,-0.335937 -4.109375,-1.015625 C 3.382812,-1.59375 2.441406,-2.546875 1.765625,-3.765625 1.085938,-4.984375 0.75,-6.375 0.75,-7.9375 Z m 0,0"
               id="path125" />
          </g>
        </g>
      </g>
      <g
         fill="#231f20"
         fill-opacity="1"
         id="g139">
        <g
           transform="translate(31.408576,24.231518)"
           id="g137">
          <g
             id="g135">
            <path
               d="M 8.890625,0.15625 C 7.398438,0.15625 6.035156,-0.1875 4.796875,-0.875 3.554688,-1.570312 2.570312,-2.539062 1.84375,-3.78125 1.113281,-5.019531 0.75,-6.414062 0.75,-7.96875 c 0,-1.539062 0.363281,-2.925781 1.09375,-4.15625 0.726562,-1.238281 1.710938,-2.203125 2.953125,-2.890625 1.238281,-0.695313 2.601563,-1.046875 4.09375,-1.046875 1.488281,0 2.851563,0.351562 4.09375,1.046875 1.238281,0.6875 2.210937,1.652344 2.921875,2.890625 0.71875,1.230469 1.078125,2.617188 1.078125,4.15625 0,1.554688 -0.359375,2.949219 -1.078125,4.1875 -0.71875,1.242188 -1.699219,2.210938 -2.9375,2.90625 -1.230469,0.6875 -2.589844,1.03125 -4.078125,1.03125 z m 0,-3.515625 c 1.257813,0 2.269531,-0.421875 3.03125,-1.265625 0.757813,-0.84375 1.140625,-1.957031 1.140625,-3.34375 0,-1.394531 -0.382812,-2.507812 -1.140625,-3.34375 -0.761719,-0.832031 -1.773437,-1.25 -3.03125,-1.25 -1.28125,0 -2.304687,0.417969 -3.0625,1.25 -0.761719,0.824219 -1.140625,1.9375 -1.140625,3.34375 0,1.40625 0.378906,2.527344 1.140625,3.359375 0.757813,0.835937 1.78125,1.25 3.0625,1.25 z m 0,0"
               id="path133" />
          </g>
        </g>
      </g>
      <g
         fill="#231f20"
         fill-opacity="1"
         id="g147">
        <g
           transform="translate(62.253153,24.231518)"
           id="g145">
          <g
             id="g143">
            <path
               d="m 5.1875,-15.84375 v 9.484375 c 0,0.949219 0.234375,1.679687 0.703125,2.1875 0.46875,0.511719 1.148437,0.765625 2.046875,0.765625 0.90625,0 1.597656,-0.253906 2.078125,-0.765625 0.476563,-0.507813 0.71875,-1.238281 0.71875,-2.1875 v -9.484375 h 3.859375 v 9.453125 c 0,1.417969 -0.304688,2.617187 -0.90625,3.59375 -0.59375,0.980469 -1.402344,1.71875 -2.421875,2.21875 C 10.253906,-0.0859375 9.125,0.15625 7.875,0.15625 6.625,0.15625 5.503906,-0.0859375 4.515625,-0.578125 3.535156,-1.066406 2.757812,-1.800781 2.1875,-2.78125 1.613281,-3.769531 1.328125,-4.972656 1.328125,-6.390625 v -9.453125 z m 0,0"
               id="path141" />
          </g>
        </g>
      </g>
      <g
         fill="#231f20"
         fill-opacity="1"
         id="g155">
        <g
           transform="translate(91.270648,24.231518)"
           id="g153">
          <g
             id="g151">
            <path
               d="M 15.5625,0 H 11.703125 L 5.25,-9.765625 V 0 H 1.40625 V -15.84375 H 5.25 l 6.453125,9.8125 v -9.8125 H 15.5625 Z m 0,0"
               id="path149" />
          </g>
        </g>
      </g>
      <g
         fill="#231f20"
         fill-opacity="1"
         id="g163">
        <g
           transform="translate(121.3483,24.231518)"
           id="g161">
          <g
             id="g159">
            <path
               d="m 7.125,0.15625 c -1.15625,0 -2.195312,-0.1875 -3.109375,-0.5625 -0.917969,-0.375 -1.652344,-0.929688 -2.203125,-1.671875 -0.542969,-0.738281 -0.828125,-1.625 -0.859375,-2.65625 h 4.09375 c 0.0625,0.585937 0.265625,1.03125 0.609375,1.34375 0.351562,0.304687 0.804688,0.453125 1.359375,0.453125 0.570313,0 1.019531,-0.128906 1.34375,-0.390625 0.332031,-0.257813 0.5,-0.625 0.5,-1.09375 0,-0.394531 -0.132813,-0.71875 -0.390625,-0.96875 C 8.207031,-5.648438 7.882812,-5.859375 7.5,-6.015625 7.113281,-6.179688 6.566406,-6.375 5.859375,-6.59375 c -1.023437,-0.3125 -1.855469,-0.625 -2.5,-0.9375 C 2.710938,-7.851562 2.15625,-8.320312 1.6875,-8.9375 1.226562,-9.550781 1,-10.351562 1,-11.34375 c 0,-1.476562 0.53125,-2.632812 1.59375,-3.46875 1.070312,-0.832031 2.460938,-1.25 4.171875,-1.25 1.75,0 3.15625,0.417969 4.21875,1.25 1.070313,0.835938 1.644531,1.996094 1.71875,3.484375 H 8.53125 C 8.5,-11.835938 8.3125,-12.238281 7.96875,-12.53125 c -0.34375,-0.289062 -0.789062,-0.4375 -1.328125,-0.4375 -0.46875,0 -0.851563,0.125 -1.140625,0.375 -0.28125,0.242188 -0.421875,0.59375 -0.421875,1.0625 0,0.511719 0.238281,0.914062 0.71875,1.203125 0.476563,0.28125 1.234375,0.589844 2.265625,0.921875 1.019531,0.34375 1.847656,0.679688 2.484375,1 0.632813,0.3125 1.1875,0.773438 1.65625,1.375 0.46875,0.59375 0.703125,1.367188 0.703125,2.3125 0,0.90625 -0.230469,1.730469 -0.6875,2.46875 -0.460938,0.730469 -1.125,1.3125 -2,1.75 C 9.34375,-0.0625 8.3125,0.15625 7.125,0.15625 Z m 0,0"
               id="path157" />
          </g>
        </g>
      </g>
      <g
         fill="#231f20"
         fill-opacity="1"
         id="g171">
        <g
           transform="translate(148.33571,24.231518)"
           id="g169">
          <g
             id="g167">
            <path
               d="m 5.25,-12.75 v 3.203125 h 5.171875 V -6.5625 H 5.25 v 3.46875 h 5.84375 V 0 h -9.6875 v -15.84375 h 9.6875 V -12.75 Z m 0,0"
               id="path165" />
          </g>
        </g>
      </g>
      <g
         fill="#231f20"
         fill-opacity="1"
         id="g179">
        <g
           transform="translate(173.65392,24.231518)"
           id="g177">
          <g
             id="g175">
            <path
               d="m 5.25,-2.984375 h 5.0625 V 0 H 1.40625 V -15.84375 H 5.25 Z m 0,0"
               id="path173" />
          </g>
        </g>
      </g>
      <g
         fill="#231f20"
         fill-opacity="1"
         id="g187">
        <g
           transform="translate(197.52851,24.231518)"
           id="g185">
          <g
             id="g183">
            <path
               d="M 5.25,-15.84375 V 0 H 1.40625 v -15.84375 z m 0,0"
               id="path181" />
          </g>
        </g>
      </g>
      <g
         fill="#231f20"
         fill-opacity="1"
         id="g195">
        <g
           transform="translate(217.29781,24.231518)"
           id="g193">
          <g
             id="g191">
            <path
               d="M 15.5625,0 H 11.703125 L 5.25,-9.765625 V 0 H 1.40625 V -15.84375 H 5.25 l 6.453125,9.8125 v -9.8125 H 15.5625 Z m 0,0"
               id="path189" />
          </g>
        </g>
      </g>
      <g
         fill="#231f20"
         fill-opacity="1"
         id="g203">
        <g
           transform="translate(247.37546,24.231518)"
           id="g201">
          <g
             id="g199">
            <path
               d="m 11.90625,-10.828125 c -0.28125,-0.53125 -0.695312,-0.929687 -1.234375,-1.203125 -0.53125,-0.28125 -1.15625,-0.421875 -1.875,-0.421875 -1.25,0 -2.25,0.414063 -3,1.234375 -0.75,0.8125 -1.125,1.90625 -1.125,3.28125 0,1.460938 0.394531,2.601562 1.1875,3.421875 0.789063,0.8125 1.875,1.21875 3.25,1.21875 0.945313,0 1.75,-0.238281 2.40625,-0.71875 0.65625,-0.476563 1.132813,-1.171875 1.4375,-2.078125 H 8.0625 V -8.9375 h 8.390625 v 3.59375 c -0.292969,0.960938 -0.78125,1.855469 -1.46875,2.6875 -0.679687,0.824219 -1.542969,1.492188 -2.59375,2 -1.054687,0.511719 -2.242187,0.765625 -3.5625,0.765625 C 7.253906,0.109375 5.851562,-0.226562 4.625,-0.90625 3.40625,-1.59375 2.453125,-2.546875 1.765625,-3.765625 1.085938,-4.984375 0.75,-6.375 0.75,-7.9375 c 0,-1.5625 0.335938,-2.957031 1.015625,-4.1875 0.6875,-1.226562 1.640625,-2.179688 2.859375,-2.859375 1.21875,-0.6875 2.609375,-1.03125 4.171875,-1.03125 1.894531,0 3.492187,0.460937 4.796875,1.375 1.300781,0.917969 2.160156,2.1875 2.578125,3.8125 z m 0,0"
               id="path197" />
          </g>
        </g>
      </g>
    </g>
  </g>
</svg>
