<?xml version="1.0" encoding="UTF-8" standalone="no"?>
<svg
   xmlns:dc="http://purl.org/dc/elements/1.1/"
   xmlns:cc="http://creativecommons.org/ns#"
   xmlns:rdf="http://www.w3.org/1999/02/22-rdf-syntax-ns#"
   xmlns:svg="http://www.w3.org/2000/svg"
   xmlns="http://www.w3.org/2000/svg"
   xmlns:sodipodi="http://sodipodi.sourceforge.net/DTD/sodipodi-0.dtd"
   xmlns:inkscape="http://www.inkscape.org/namespaces/inkscape"
   width="88.635506mm"
   height="132.75171mm"
   viewBox="0 0 88.635506 132.75171"
   version="1.1"
   id="svg8"
   inkscape:version="1.0.2 (e86c870879, 2021-01-15)"
   sodipodi:docname="logo.svg">
  <defs
     id="defs2" />
  <sodipodi:namedview
     id="base"
     pagecolor="#ffffff"
     bordercolor="#666666"
     borderopacity="1.0"
     inkscape:pageopacity="0.0"
     inkscape:pageshadow="2"
     inkscape:zoom="0.80989789"
     inkscape:cx="-9.7986666"
     inkscape:cy="242.56407"
     inkscape:document-units="mm"
     inkscape:current-layer="layer1"
     inkscape:document-rotation="0"
     showgrid="false"
     inkscape:window-width="1442"
     inkscape:window-height="784"
     inkscape:window-x="19"
     inkscape:window-y="13"
     inkscape:window-maximized="0"
     fit-margin-top="0"
     fit-margin-left="0"
     fit-margin-right="0"
     fit-margin-bottom="0" />
  <metadata
     id="metadata5">
    <rdf:RDF>
      <cc:Work
         rdf:about="">
        <dc:format>image/svg+xml</dc:format>
        <dc:type
           rdf:resource="http://purl.org/dc/dcmitype/StillImage" />
        <dc:title></dc:title>
      </cc:Work>
    </rdf:RDF>
  </metadata>
  <g
     inkscape:label="Layer 1"
     inkscape:groupmode="layer"
     id="layer1"
     transform="translate(-30.362823,-45.193256)">
    <g
       id="g153"
       transform="translate(85.505289,-36.345963)"
       inkscape:export-xdpi="96"
       inkscape:export-ydpi="96">
      <path
         style="fill:#eec731;stroke-width:0.264583"
         d="m -27.904759,213.9911 c -1.93331,-0.74272 -3.066727,-1.4649 -4.414773,-2.81296 -1.311675,-1.31168 -1.781665,-2.09974 -3.309569,-5.54934 -0.848332,-1.91531 -1.759361,-2.95571 -4.111104,-4.6949 -6.676785,-4.93772 -11.773315,-13.10007 -14.204584,-22.74937 -1.208084,-4.79468 -1.555028,-12.92898 -0.797818,-18.7053 0.994056,-7.58309 3.804947,-15.25061 8.18908,-22.33809 2.210657,-3.57379 4.283287,-6.10244 8.093113,-9.87376 4.872466,-4.82322 10.224288,-8.26485 16.383418,-10.5358 2.576845,-0.95011 9.332647,-2.3784 11.265558,-2.38173 0.73488,-0.001 1.463252,-0.1294 1.618602,-0.28475 0.401521,-0.40152 0.151871,-4.14011 -0.422566,-6.3281 -0.843225,-3.21177 -3.066407,-6.58494 -5.739342,-8.708133 -1.669923,-1.326469 -2.157391,-2.332632 -1.683916,-3.4757 0.739065,-1.784264 2.531448,-2.315271 4.472508,-1.325016 2.757157,1.406596 6.912702,6.924679 8.192682,10.878919 0.51117,1.57915 1.07991,5.55413 1.08481,7.5818 0.005,1.87114 0.0206,1.91664 0.73222,2.07039 2.09741,0.45314 5.61624,1.53801 7.26665,2.24032 9.55338,4.06532 17.50734,13.19142 21.20987,24.33547 5.70992,17.18598 2.41953,35.57902 -8.91549,49.83696 -7.53555,9.47871 -17.43322,15.78776 -28.490715,18.16076 -2.984413,0.64047 -4.194326,1.14406 -6.122977,2.54851 -2.367894,1.72431 -4.057142,2.31632 -6.841606,2.39769 -1.65377,0.0483 -2.835249,-0.0501 -3.454051,-0.28787 z m 4.539049,-5.49852 c 0.494657,-0.17117 1.990524,-1.05484 3.324145,-1.96372 2.551266,-1.73871 3.173288,-1.97575 8.632801,-3.28977 7.738854,-1.86263 13.482024,-5.12767 19.730194,-11.21677 6.15596,-5.99923 10.38353,-13.06776 12.59202,-21.05393 1.28972,-4.66381 1.59496,-7.18045 1.5885,-13.09688 -0.006,-5.7466 -0.27662,-8.0578 -1.46128,-12.49261 -3.23074,-12.09438 -11.90159,-21.54205 -22.14712,-24.1313 -4.86177,-1.22867 -8.82169,-1.31096 -14.083842,-0.29268 -14.472208,2.80053 -27.150753,15.3445 -32.097895,31.75722 -1.46555,4.86213 -1.861313,7.85688 -1.85316,14.02291 0.0065,4.88854 0.0915,6.07925 0.604655,8.46667 1.970391,9.16712 6.279867,16.60863 12.29147,21.22465 3.525701,2.70722 4.837352,4.36435 6.474875,8.18033 1.531845,3.56971 3.633452,4.84482 6.404637,3.88588 z"
         id="path144" />
      <path
         style="fill:#b4c54e;stroke-width:0.264583"
         d="m -38.895638,194.18557 -0.504028,-0.59531 0.595312,0.50403 c 0.559447,0.47366 0.715762,0.6866 0.504028,0.6866 -0.05021,0 -0.318097,-0.2679 -0.595312,-0.59532 z m 29.811652,-81.84444 c 0.0127,-0.30822 0.07539,-0.37092 0.15985,-0.15985 0.07643,0.19099 0.06703,0.4192 -0.02087,0.50712 -0.08792,0.0879 -0.150453,-0.0684 -0.138965,-0.34727 z m 7.029156,-1.42641 c -1.06908,-0.20652 -1.61351,-0.72522 -1.24745,-1.1885 0.11884,-0.1504 0.29722,-0.86877 0.3964,-1.59637 0.62671,-4.59752 2.32262,-9.454383 4.55502,-13.04501 1.67942,-2.701209 5.50893,-6.627429 8.23035,-8.438197 4.98096,-3.314216 11.94103,-5.107424 19.8237,-5.107424 h 3.78985 l -0.004,1.124479 c -0.002,0.618463 -0.23177,2.196041 -0.50997,3.505729 -2.92742,13.7813 -12.19782,22.751873 -25.40443,24.582773 -3.11587,0.43197 -7.82316,0.51142 -9.62933,0.16252 z"
         id="path142" />
    </g>
  </g>
</svg>
